<svg width="871" height="404" viewBox="0 0 871 404" fill="none" xmlns="http://www.w3.org/2000/svg">
<rect width="870.25" height="403.863" fill="black"/>
<path d="M560.571 200.82C578.754 199.529 610.004 202.098 626.858 207.901C648.775 215.447 662.398 225.123 672.668 245.929C672.607 240.168 671.867 227.566 674.079 223.014C679.829 211.18 701.321 217.92 709.692 222.004C734.475 234.097 721.645 263.208 726.327 284.244C727.158 287.982 732.203 291.343 736.064 289.666C741.685 285.877 739.395 276.05 739.828 270.507C740.584 259.813 735.949 236.562 747.501 230.715C760.003 224.546 780.116 235.403 785.706 247.065C791.354 258.85 790.441 284.627 786.051 296.905C781.666 309.167 771.658 318.908 760.255 324.954C760.287 329.377 760.472 333.965 760.403 338.341C760.137 346.967 761.585 356.218 759.706 364.686C756.67 378.362 743.438 382.114 731.332 379.181C722.016 377.002 713.986 371.129 709.086 362.912C704.007 351.49 706.129 331.114 706.309 318.293C690.288 307.106 682.791 292.716 677.259 274.212C674.3 299.918 656.018 309.528 632.445 312.643C643.501 315.594 658.645 314.225 668.68 318.623C680.194 323.67 676.202 347.998 670.513 356.696C659.966 372.821 630.734 373.344 615.842 363.373C604.828 355.981 603.756 346.035 601.488 333.966L601.02 333.795C599.239 340.143 601.907 350.379 596.803 356.897C593.556 361.043 588.925 363.463 583.789 364.149C565.071 366.647 543.488 359.086 540.701 337.902C539.318 318.179 540.667 297.264 540.758 277.348L540.742 240.665C540.735 223.587 537.881 204.104 560.571 200.82ZM620.401 259.459C618.849 253.699 612.882 252.051 607.589 252.292C592.057 256.29 598.721 270.303 612.005 269.561C615.127 268.746 617.862 267.877 619.655 264.896C620.629 263.259 620.898 261.297 620.401 259.459Z" fill="#F8BC1C"/>
<path d="M388.472 0.352452C401.831 -1.43655 415.832 3.54945 422.118 16.1235C426.803 25.4935 427.393 36.7514 428.688 47.0424C430.362 60.1444 431.863 73.2675 433.19 86.4085C434.899 102.572 441.118 140.859 436.124 155.486C433.681 162.879 428.314 168.947 421.276 172.276C412.837 176.268 400.613 176.899 391.679 173.626C381.098 169.75 379.478 160.831 378.308 150.814C377.983 148.028 378.136 145.34 377.019 142.769C375.423 141.367 376.288 141.637 374.5 141.515C371.988 143.76 374.289 163.804 364.096 171.361C351.568 180.648 335.104 183.897 323.638 169.748C318.44 163.333 320.437 147.962 317.322 144.568L316.391 144.737C314.303 147.031 315.057 151.779 314.818 154.942C314.526 158.815 313.91 161.809 312.957 165.564C308.98 178.006 302.706 182.766 290.408 185.872C276.57 189.366 262.014 185.91 256.821 171.08C255.646 167.728 255.157 161.959 255.203 158.416C255.307 150.37 256.519 142.15 257.492 134.141C259.164 120.436 260.934 106.743 262.802 93.0635C264.748 78.4755 267.701 48.3734 271.786 35.4674C273.455 30.1174 276.442 25.2725 280.473 21.3775C294.761 7.30045 321.171 5.16945 333.88 22.1135C339.474 29.5735 341.202 46.3285 345.801 51.1795L346.556 51.1875C349.261 48.6935 350.454 40.5285 351.512 36.6555C357.205 15.8135 366.201 3.32545 388.472 0.352452Z" fill="url(#paint0_linear_1014_27926)"/>
<path d="M511.442 1.36434C514.879 0.771339 520.46 0.88434 523.979 1.04234C564.898 2.87934 602.377 32.2193 610.108 73.0473C614.483 95.0123 609.764 117.813 597.03 136.237C581.505 158.95 561.828 170.291 535.182 175.371C508.515 178.513 486.765 172.945 464.782 156.898C458.112 152.03 444.186 137.719 441.96 130.063C438.47 118.062 438.11 97.4923 435.644 84.7343C432.08 66.3013 440.269 47.5503 451.467 33.0053C465.775 14.4203 488.289 4.22634 511.442 1.36434Z" fill="#F8BC1C"/>
<path d="M509.756 91.8763C513.495 91.5693 517.248 91.4683 520.999 91.5733C537.62 92.1383 555.602 99.4773 567.259 111.687C568.713 113.175 571.024 116.306 570.44 118.597C566.171 135.36 551.315 116.852 544.602 113.303C538.976 110.328 534.508 109.065 529.132 107.91C512.396 105.23 499.349 107.599 485.376 117.747C482.483 119.582 480.011 123.491 476.645 124.426C467.54 126.954 464.182 116.826 469.386 110.648C471.155 108.548 473.342 107.255 475.406 105.581C485.485 97.4103 497.064 93.4423 509.756 91.8763Z" fill="black"/>
<path d="M493.612 32.7949C500.011 33.4249 505.545 39.2319 505.684 45.6489C505.951 57.9499 491.514 61.9339 484.549 69.8839L484.042 70.4669C481.153 67.3019 478.122 65.3379 474.572 63.0079C467.789 58.3799 460.217 52.9019 461.922 43.4429C463.099 36.9129 469.357 31.8579 476.068 33.4319C479.95 34.3419 481.682 36.4669 483.572 39.7649C486.819 35.2869 488.186 33.8209 493.612 32.7949Z" fill="black"/>
<path d="M545.95 34.2561C552.503 33.7201 554.511 35.2161 558.754 39.8571C561.598 35.9301 564.467 33.6251 569.66 34.1741C572.974 34.4971 576 36.1961 578.001 38.8581C580.1 41.6561 580.981 45.1831 580.446 48.6391C579.453 55.0491 574.348 58.9331 569.532 62.4821C565.803 64.8961 562.105 67.3591 558.44 69.8701L557.173 69.4471C554.409 65.6181 551.702 64.7941 547.821 62.3101C536.014 54.7541 530.441 41.7901 545.95 34.2561Z" fill="black"/>
<path d="M441.752 190.379C441.944 190.358 442.135 190.338 442.326 190.318C467.056 188.516 491.513 196.431 510.498 212.38C525.407 225.143 537.464 247.982 539.095 267.651C541.013 290.78 534.658 312.248 519.418 329.985C503.273 348.708 480.3 360.182 455.633 361.842C433.542 363.915 409.073 356.115 391.491 342.877C352.874 313.803 348.516 261.926 378.214 224.684C394.575 204.166 415.865 193.517 441.752 190.379Z" fill="url(#paint1_linear_1014_27926)"/>
<path d="M395.759 280.744C401.827 280.339 403.779 282.441 407.252 287.298C427.56 315.703 467.117 316.936 490.632 291.774C493.842 288.339 496.186 281.489 501.73 281.459C512.207 281.4 514.192 290.932 507.532 298.191C476.061 329.579 439.456 334.971 403.304 307.274C395.697 301.446 380.282 287.853 395.759 280.744Z" fill="black"/>
<path d="M477.646 219.33C483.568 219.717 484.883 220.882 488.608 225.241C488.989 224.804 489.382 224.377 489.786 223.962C497.868 215.736 512.267 219.576 511.248 232.068C510.657 239.323 503.699 244.43 498.459 248.866C495.303 251.691 491.501 254.628 488.176 257.317C481.9 251.28 467.582 241.106 466.026 233.311C465.398 230.213 466.074 226.994 467.894 224.41C470.324 220.9 473.713 219.958 477.646 219.33Z" fill="black"/>
<path d="M413.858 224.814C416.961 221.623 419.337 220.035 423.917 219.659C430.723 219.1 436.743 223.908 436.383 230.968C436.005 238.374 429.988 243.282 424.943 247.859C421.775 250.844 418.102 253.899 414.789 256.769C410.632 253.642 406.767 249.745 402.738 246.678C393.287 239.483 384.619 223.993 401.967 219.824C407.879 220.006 409.81 220.795 413.858 224.814Z" fill="black"/>
<path d="M234.542 26.3517C256.674 23.7777 261.481 53.2137 252.462 68.5647C242.59 85.3677 225.983 81.9157 209.591 86.2207C207.934 86.6557 206.889 87.3987 206.16 88.8477C206.606 89.6637 206.913 90.4847 208.118 90.4477C216.909 90.2187 226.931 85.6847 235.74 88.6177C248.422 92.8397 249.108 109.611 245.255 120.164C240.378 133.519 227.124 134.397 215.19 136.5C212.484 136.977 209.452 137.242 206.96 138.375C205.787 139.746 206.069 138.983 205.992 140.708C209.689 144.528 226.49 138.814 233.187 139.744C259.156 143.352 255.305 173.002 239.196 185.934C223.034 197.82 172 210.317 154.975 196.742C130.942 177.58 140.317 114.217 140.705 87.3897C141.174 54.9317 166.779 42.0537 194.135 35.4767C207.719 32.2107 220.021 28.5967 234.542 26.3517Z" fill="#F8BC1C"/>
<path d="M187.948 214.397C193.138 214.388 198.338 214.519 203.435 215.595C210.943 217.18 218.219 220.871 222.416 227.546C227.261 235.252 227.666 246.225 225.665 254.899C218.156 287.46 178.005 259.046 168.048 266.994C166.934 267.884 166.76 268.642 166.549 269.999C167.911 272.159 172.965 273.367 175.506 273.909C189.796 276.957 211.034 279.27 222.463 288.936C241.24 304.815 238.529 337.596 223.121 355.141C204.946 375.838 180.095 380.845 153.878 383.035C146.608 383.64 138.436 383.304 131.342 381.661C124.552 380.089 118.146 376.829 114.47 370.65C110.209 363.488 109.301 352.861 111.306 344.858C118.848 314.742 164.832 338.286 172.603 331.949C173.65 331.095 173.632 330.392 173.774 329.164C171.093 325.5 154.543 323.88 148.915 322.643C135.632 320.175 117.083 311.262 112.35 297.019C95.6772 246.856 146.12 216.473 187.948 214.397Z" fill="#F8BC1C"/>
<path d="M324.006 197.398C334.681 196.627 352.24 196.423 360.664 203.837C371.141 213.855 370.326 225.655 365.34 237.704C357.598 256.409 351.486 258.624 331.584 259.19L331.597 310.808C331.596 320.111 331.889 330.253 331.081 339.403C329.859 353.257 316.239 365.921 302.601 367.414C293.95 368.361 287.382 367.771 279.743 363.421C278.688 362.658 277.282 361.503 276.364 360.581C272.86 357.11 270.354 352.762 269.106 347.991C267.068 339.888 267.549 322.833 267.538 313.913L267.575 267.027C258.666 267.863 244.829 269.573 237.99 263.14C223.163 249.651 230.905 218.743 248.294 210.538C269.793 200.393 300.352 198.893 324.006 197.398Z" fill="url(#paint2_linear_1014_27926)"/>
<path d="M703.449 152.292C701.784 164.509 698.791 176.718 689.355 185.302C678.738 194.72 664.978 198.029 650.853 197.501C625.893 196.568 593.113 180.407 593.046 151.765C593.032 146.062 597.936 140.636 601.296 136.343C605.808 130.579 611.582 125.316 619.553 126.203C625.474 126.89 629.291 131.915 632.331 136.569C635.213 140.983 639.84 145.579 644.926 140.931C645.502 140.409 646.255 139.214 646.25 138.414C646.201 131.327 645.16 124.202 644.919 117.101C644.469 103.665 644.376 90.5704 644.326 77.1564C644.294 68.5364 643.985 59.0374 644.98 50.5604C645.526 47.0254 646.722 43.5914 649.207 40.9794C660.659 28.9394 683.661 36.9844 694.059 46.7784C699.754 52.1424 704.071 59.2974 704.317 67.3124L705.188 68.0614C705.222 74.8484 705.21 81.6354 705.153 88.4214C705.417 100.184 705.207 112.36 705.239 124.153C705.251 128.907 705.456 140.111 704.859 144.266L704.827 146.142L703.773 147.162L703.449 152.292Z" fill="#F8BC1C"/>
<path d="M709.739 67.4792C710.534 62.8952 712.332 57.1812 716.533 54.9812C731.934 46.9172 752.256 56.4032 760.356 69.2212C763.301 73.9342 765.179 79.2342 765.86 84.7502C766.58 90.3472 766.33 98.4782 766.314 104.335L766.221 134.087C766.186 145.164 766.207 156.241 766.284 167.317C766.335 177.801 766.803 188.233 764.761 198.461C762.258 211.001 751.617 216.556 739.639 212.835C712.03 204.258 710.045 182.182 709.217 157.896C708.42 155.32 709.292 154.378 708 151.71L708.324 146.58L709.378 145.56L709.41 143.684C710.007 139.529 709.802 128.325 709.79 123.571C709.758 111.778 709.968 99.6022 709.704 87.8392C709.761 81.0532 709.773 74.2662 709.739 67.4792Z" fill="#F8BC1C"/>
<path d="M49.0831 211.227C62.2841 210.74 66.0751 223.235 72.8151 232.411C81.2901 235.014 93.9141 234.592 100.723 240.388C113.8 251.519 94.3051 264.897 87.9761 272.41L87.6391 272.817C88.2781 281.101 90.7431 291.42 87.5021 299.289C81.6291 313.55 65.2971 304.695 55.7561 300.176C54.8031 299.714 52.3501 298.602 51.2521 298.849C42.2461 300.871 26.2791 312.175 17.7712 303.479C11.4591 297.027 15.5064 281.306 15.9187 272.447C10.7979 267.553 2.45631 259.899 0.635412 252.997C-4.04969 235.238 18.3705 235.689 28.6591 233L29.2471 232.84C35.9301 224.684 37.4021 214.519 49.0831 211.227Z" fill="#F8BC1C"/>
<path d="M58.002 326.201C69.023 326.425 69.257 335.775 75.425 342.101C81.418 343.561 90.068 344.294 94.746 348.593C102.828 356.021 89.72 366.97 84.653 371.862C84.886 377.407 86.121 385.325 84.19 390.39C80.159 400.967 67.057 393.601 60.382 390.53C55.611 389.121 43.352 400.403 37.57 394.761C32.278 389.599 34.356 378.623 35.011 372.281C31.402 368.6 24.31 362.297 22.849 357.663C18.0974 342.581 38.838 344.796 43.668 341.532C50.381 336.997 47.034 330.149 58.002 326.201Z" fill="#F8BC1C"/>
<path d="M831.38 251.205C840.723 250.499 844.359 259.547 849.157 266.322C854.67 267.597 862.437 268.586 867.123 271.495C876.127 277.085 863.162 289.271 859.76 294.552L859.443 295.054C859.421 301.491 863.275 316.219 854.431 319.135C849.182 320.866 842.249 317.003 837.533 314.662C827.457 309.735 818.297 329.048 807.829 313.154C807.32 308.102 807.718 300.567 807.837 295.319C804.03 290.3 799.031 284.678 796.819 278.806C793.268 269.377 811.431 268.064 817.423 266.395L818.075 266.209C823.662 260.585 823.944 255.332 831.38 251.205Z" fill="#F8BC1C"/>
<path d="M807.846 335.724C817.497 335.041 819.747 345.274 824.855 351.858C848.247 356.343 848.671 363.86 832.595 379.936C833.168 383.039 833.808 386.195 834.345 389.297C838.077 410.829 821.669 403.26 810.131 399.179C804.275 399.129 795.957 404.245 791.12 403.277C779.119 400.875 786.139 386.212 783.864 378.843C782.508 373.935 776.15 370.428 773.979 366.376C765.294 350.164 788.954 354.682 794.284 350.466C800.197 345.789 800.752 340.062 807.846 335.724Z" fill="#F8BC1C"/>
<path d="M86.9982 128.715C96.2092 128.712 98.1631 135.668 102.335 142.72C107.828 143.886 115.237 144.913 119.937 147.843C128.755 153.34 115.594 165.011 112.143 170.259L111.804 170.786C111.595 176.677 113.442 183.724 111.486 189.402C108.541 197.95 95.0872 191.087 89.5342 188.898C84.3872 187.729 75.5252 194.718 70.3042 194.148C62.1162 193.254 64.8172 175.964 65.2562 170.73C61.6032 164.894 51.2562 158.252 55.4782 149.793C58.7492 143.24 70.4741 144.723 74.3911 141.612C80.0691 137.102 77.8172 131.466 86.9982 128.715Z" fill="#F8BC1C"/>
<path d="M801.351 135.676C809.197 135.848 812.376 143.17 816.98 148.818C822.048 150.827 829.582 151.617 833.726 155.275C840.405 161.169 829.65 171.274 825.665 175.742C825.826 181.315 826.895 188.622 825.392 193.88C822.676 203.383 808.224 195.779 802.376 193.652C797.644 194.52 784.32 202.167 780.159 196.943C776.681 192.576 778.096 182.229 778.6 176.619C774.463 170.076 762.314 158.547 773.402 153.205C778.478 150.759 782.959 150.325 788.227 148.748C793.43 143.419 793.821 139.257 801.351 135.676Z" fill="#F8BC1C"/>
<defs>
<linearGradient id="paint0_linear_1014_27926" x1="261.519" y1="59.9281" x2="441.965" y2="139.122" gradientUnits="userSpaceOnUse">
<stop stop-color="#FDDE22"/>
<stop offset="1" stop-color="#FEC328"/>
</linearGradient>
<linearGradient id="paint1_linear_1014_27926" x1="388.155" y1="214.784" x2="510.103" y2="337.351" gradientUnits="userSpaceOnUse">
<stop stop-color="#FECC24"/>
<stop offset="1" stop-color="#FFB836"/>
</linearGradient>
<linearGradient id="paint2_linear_1014_27926" x1="227.369" y1="241.598" x2="350.376" y2="296.564" gradientUnits="userSpaceOnUse">
<stop stop-color="#FDD720"/>
<stop offset="1" stop-color="#FEBC27"/>
</linearGradient>
</defs>
</svg>
